<svg xmlns="http://www.w3.org/2000/svg" xmlns:xlink="http://www.w3.org/1999/xlink" width="500" zoomAndPan="magnify" viewBox="0 0 375 374.999991" height="500" preserveAspectRatio="xMidYMid meet" version="1.0"><defs><g/><clipPath id="b6d18f3b62"><path d="M 20 184 L 117 184 L 117 263.933594 L 20 263.933594 Z M 20 184 " clip-rule="nonzero"/></clipPath><clipPath id="68777440a4"><path d="M 4 152.183594 L 85 152.183594 L 85 232 L 4 232 Z M 4 152.183594 " clip-rule="nonzero"/></clipPath></defs><g clip-path="url(#b6d18f3b62)"><path fill="#8c52ff" d="M 54.347656 263.832031 C 45.703125 263.832031 37.058594 263.878906 28.410156 263.808594 C 25.074219 263.78125 22.230469 261.625 21.28125 258.734375 C 20.21875 255.5 21.066406 251.925781 23.890625 250.175781 C 25.484375 249.1875 27.628906 248.679688 29.535156 248.660156 C 45.117188 248.539062 60.695312 248.644531 76.28125 248.566406 C 88.421875 248.5 98.015625 240.503906 100.414062 228.667969 C 103.371094 214.121094 92.179688 200.125 77.234375 199.894531 C 66.476562 199.726562 55.71875 199.863281 44.960938 199.847656 C 41.652344 199.84375 39.164062 198.390625 37.648438 195.4375 C 36.292969 192.789062 36.296875 189.886719 38.335938 187.871094 C 39.972656 186.242188 42.503906 184.605469 44.671875 184.570312 C 56.625 184.367188 68.617188 184.085938 80.527344 184.914062 C 97.523438 186.09375 111.65625 199.027344 115.339844 215.582031 C 120.816406 240.207031 102.261719 263.558594 76.960938 263.824219 C 69.429688 263.898438 61.890625 263.832031 54.347656 263.832031 Z M 54.347656 263.832031 " fill-opacity="1" fill-rule="nonzero"/></g><g clip-path="url(#68777440a4)"><path fill="#8c52ff" d="M 59.335938 231.296875 C 52.308594 231.296875 45.199219 231.992188 38.277344 231.15625 C 21.347656 229.113281 6.746094 213.589844 4.964844 196.640625 C 3.066406 178.554688 13.691406 161.285156 30.265625 155.03125 C 37.742188 152.214844 45.425781 152.191406 53.152344 152.492188 C 57.269531 152.652344 60.246094 156.195312 60.214844 160.128906 C 60.1875 164.054688 57.195312 167.410156 53.101562 167.761719 C 50.304688 168.003906 47.476562 167.851562 44.660156 167.871094 C 31.085938 167.972656 20.320312 178.136719 20.15625 191.636719 C 19.988281 205.511719 30.511719 215.765625 43.167969 216.292969 C 53.40625 216.722656 63.675781 216.4375 73.929688 216.480469 C 75.132812 216.484375 76.351562 216.472656 77.539062 216.632812 C 81.59375 217.179688 84.546875 220.664062 84.304688 224.523438 C 84.0625 228.445312 80.84375 231.722656 76.835938 231.800781 C 71.007812 231.914062 65.171875 231.832031 59.339844 231.832031 C 59.339844 231.652344 59.339844 231.472656 59.335938 231.296875 Z M 59.335938 231.296875 " fill-opacity="1" fill-rule="nonzero"/></g><g fill="#000000" fill-opacity="1"><g transform="translate(76.854089, 169.035962)"><g><path d="M 3.328125 -6.703125 C 2.191406 -8.097656 1.625 -9.347656 1.625 -10.453125 C 1.625 -11.554688 2.554688 -13.019531 4.421875 -14.84375 C 5.515625 -15.882812 6.664062 -16.40625 7.875 -16.40625 C 9.09375 -16.40625 10.785156 -15.320312 12.953125 -13.15625 C 13.566406 -12.414062 14.4375 -11.707031 15.5625 -11.03125 C 16.6875 -10.363281 17.726562 -10.03125 18.6875 -10.03125 C 22.71875 -10.03125 24.734375 -11.675781 24.734375 -14.96875 C 24.734375 -15.96875 24.179688 -16.800781 23.078125 -17.46875 C 21.972656 -18.144531 20.59375 -18.632812 18.9375 -18.9375 C 17.289062 -19.25 15.515625 -19.738281 13.609375 -20.40625 C 11.703125 -21.082031 9.921875 -21.875 8.265625 -22.78125 C 6.617188 -23.695312 5.238281 -25.140625 4.125 -27.109375 C 3.019531 -29.085938 2.46875 -31.46875 2.46875 -34.25 C 2.46875 -38.070312 3.890625 -41.398438 6.734375 -44.234375 C 9.578125 -47.078125 13.453125 -48.5 18.359375 -48.5 C 20.960938 -48.5 23.335938 -48.160156 25.484375 -47.484375 C 27.640625 -46.816406 29.128906 -46.140625 29.953125 -45.453125 L 31.578125 -44.203125 C 32.921875 -42.953125 33.59375 -41.890625 33.59375 -41.015625 C 33.59375 -40.148438 33.070312 -38.957031 32.03125 -37.4375 C 30.550781 -35.269531 29.03125 -34.1875 27.46875 -34.1875 C 26.5625 -34.1875 25.4375 -34.617188 24.09375 -35.484375 C 23.957031 -35.566406 23.703125 -35.78125 23.328125 -36.125 C 22.960938 -36.476562 22.628906 -36.765625 22.328125 -36.984375 C 21.421875 -37.546875 20.257812 -37.828125 18.84375 -37.828125 C 17.4375 -37.828125 16.265625 -37.488281 15.328125 -36.8125 C 14.398438 -36.144531 13.9375 -35.210938 13.9375 -34.015625 C 13.9375 -32.828125 14.488281 -31.863281 15.59375 -31.125 C 16.695312 -30.382812 18.070312 -29.882812 19.71875 -29.625 C 21.375 -29.363281 23.175781 -28.960938 25.125 -28.421875 C 27.082031 -27.878906 28.882812 -27.21875 30.53125 -26.4375 C 32.1875 -25.65625 33.566406 -24.296875 34.671875 -22.359375 C 35.773438 -20.429688 36.328125 -18.054688 36.328125 -15.234375 C 36.328125 -12.410156 35.765625 -9.925781 34.640625 -7.78125 C 33.515625 -5.632812 32.035156 -3.972656 30.203125 -2.796875 C 26.691406 -0.492188 22.941406 0.65625 18.953125 0.65625 C 16.910156 0.65625 14.976562 0.40625 13.15625 -0.09375 C 11.332031 -0.59375 9.851562 -1.210938 8.71875 -1.953125 C 6.425781 -3.335938 4.820312 -4.679688 3.90625 -5.984375 Z M 3.328125 -6.703125 "/></g></g></g><g fill="#000000" fill-opacity="1"><g transform="translate(114.804196, 169.035962)"><g><path d="M 22.53125 -22.78125 L 18.296875 -23.046875 L 18.296875 -14.0625 C 18.296875 -12.894531 18.476562 -12.050781 18.84375 -11.53125 C 19.21875 -11.007812 19.914062 -10.75 20.9375 -10.75 C 21.957031 -10.75 22.738281 -10.710938 23.28125 -10.640625 C 23.820312 -10.578125 24.394531 -10.375 25 -10.03125 C 26 -9.46875 26.5 -8.015625 26.5 -5.671875 C 26.5 -2.929688 25.890625 -1.257812 24.671875 -0.65625 C 24.023438 -0.351562 23.453125 -0.164062 22.953125 -0.09375 C 22.453125 -0.03125 21.722656 0 20.765625 0 C 16.253906 0 12.828125 -1.019531 10.484375 -3.0625 C 8.140625 -5.101562 6.96875 -8.550781 6.96875 -13.40625 L 6.96875 -23.046875 C 6.144531 -22.921875 5.253906 -22.859375 4.296875 -22.859375 C 3.335938 -22.859375 2.546875 -23.222656 1.921875 -23.953125 C 1.296875 -24.691406 0.984375 -25.953125 0.984375 -27.734375 C 0.984375 -29.515625 1.085938 -30.804688 1.296875 -31.609375 C 1.515625 -32.410156 1.820312 -32.988281 2.21875 -33.34375 C 2.90625 -33.90625 3.769531 -34.1875 4.8125 -34.1875 L 6.96875 -33.921875 L 6.96875 -40.625 C 6.96875 -41.625 7 -42.363281 7.0625 -42.84375 C 7.125 -43.320312 7.332031 -43.84375 7.6875 -44.40625 C 8.25 -45.488281 9.921875 -46.03125 12.703125 -46.03125 C 15.648438 -46.03125 17.40625 -45.226562 17.96875 -43.625 C 18.1875 -42.925781 18.296875 -41.816406 18.296875 -40.296875 L 18.296875 -33.921875 C 20.203125 -34.097656 21.644531 -34.1875 22.625 -34.1875 C 23.601562 -34.1875 24.34375 -34.148438 24.84375 -34.078125 C 25.34375 -34.015625 25.914062 -33.8125 26.5625 -33.46875 C 27.6875 -32.90625 28.25 -31.234375 28.25 -28.453125 C 28.25 -25.710938 27.664062 -24.039062 26.5 -23.4375 C 25.84375 -23.132812 25.265625 -22.945312 24.765625 -22.875 C 24.273438 -22.8125 23.53125 -22.78125 22.53125 -22.78125 Z M 22.53125 -22.78125 "/></g></g></g><g fill="#000000" fill-opacity="1"><g transform="translate(144.031629, 169.035962)"><g><path d="M 17.84375 -0.125 C 13.457031 -0.125 9.820312 -1.785156 6.9375 -5.109375 C 4.050781 -8.429688 2.609375 -12.476562 2.609375 -17.25 L 2.609375 -28.640625 C 2.609375 -29.679688 2.640625 -30.441406 2.703125 -30.921875 C 2.765625 -31.398438 2.945312 -31.96875 3.25 -32.625 C 3.863281 -33.789062 5.554688 -34.375 8.328125 -34.375 C 11.367188 -34.375 13.148438 -33.550781 13.671875 -31.90625 C 13.929688 -31.207031 14.0625 -30.097656 14.0625 -28.578125 L 14.0625 -17.1875 C 14.0625 -15.40625 14.570312 -14.015625 15.59375 -13.015625 C 16.613281 -12.023438 17.976562 -11.53125 19.6875 -11.53125 C 21.40625 -11.53125 22.796875 -12.050781 23.859375 -13.09375 C 24.921875 -14.132812 25.453125 -15.5 25.453125 -17.1875 L 25.453125 -28.71875 C 25.453125 -29.707031 25.484375 -30.453125 25.546875 -30.953125 C 25.617188 -31.453125 25.828125 -32.03125 26.171875 -32.6875 C 26.734375 -33.8125 28.40625 -34.375 31.1875 -34.375 C 33.925781 -34.375 35.597656 -33.789062 36.203125 -32.625 C 36.503906 -31.96875 36.6875 -31.390625 36.75 -30.890625 C 36.820312 -30.390625 36.859375 -29.640625 36.859375 -28.640625 L 36.859375 -5.59375 C 36.859375 -4.644531 36.820312 -3.921875 36.75 -3.421875 C 36.6875 -2.921875 36.484375 -2.367188 36.140625 -1.765625 C 35.484375 -0.628906 33.8125 -0.0625 31.125 -0.0625 C 28.476562 -0.0625 26.847656 -0.582031 26.234375 -1.625 C 25.804688 -2.363281 25.59375 -3.253906 25.59375 -4.296875 C 25.414062 -3.992188 25.019531 -3.5625 24.40625 -3 C 23.800781 -2.4375 23.21875 -1.957031 22.65625 -1.5625 C 21.175781 -0.601562 19.570312 -0.125 17.84375 -0.125 Z M 17.84375 -0.125 "/></g></g></g><g fill="#000000" fill-opacity="1"><g transform="translate(183.478893, 169.035962)"><g><path d="M 25.609375 -48.59375 C 25.941406 -49.226562 26.519531 -49.675781 27.34375 -49.9375 C 28.164062 -50.195312 29.257812 -50.328125 30.625 -50.328125 C 32 -50.328125 33.097656 -50.195312 33.921875 -49.9375 C 34.742188 -49.675781 35.316406 -49.21875 35.640625 -48.5625 C 35.972656 -47.914062 36.171875 -47.34375 36.234375 -46.84375 C 36.296875 -46.34375 36.328125 -45.59375 36.328125 -44.59375 L 36.328125 -5.734375 C 36.328125 -4.734375 36.296875 -3.984375 36.234375 -3.484375 C 36.171875 -2.984375 35.960938 -2.429688 35.609375 -1.828125 C 34.960938 -0.648438 33.128906 -0.0625 30.109375 -0.0625 C 27.097656 -0.0625 25.414062 -1.125 25.0625 -3.25 C 23.238281 -1.164062 20.703125 -0.125 17.453125 -0.125 C 13.546875 -0.125 9.984375 -1.828125 6.765625 -5.234375 C 3.554688 -8.648438 1.953125 -12.625 1.953125 -17.15625 C 1.953125 -21.6875 3.566406 -25.664062 6.796875 -29.09375 C 10.035156 -32.53125 13.585938 -34.25 17.453125 -34.25 C 20.660156 -34.25 23.15625 -33.160156 24.9375 -30.984375 L 24.9375 -44.671875 C 24.9375 -45.660156 24.96875 -46.40625 25.03125 -46.90625 C 25.09375 -47.40625 25.285156 -47.96875 25.609375 -48.59375 Z M 15.03125 -13.203125 C 16.164062 -12.035156 17.535156 -11.453125 19.140625 -11.453125 C 20.742188 -11.453125 22.078125 -12.035156 23.140625 -13.203125 C 24.203125 -14.378906 24.734375 -15.671875 24.734375 -17.078125 C 24.734375 -18.492188 24.222656 -19.8125 23.203125 -21.03125 C 22.191406 -22.25 20.816406 -22.859375 19.078125 -22.859375 C 17.335938 -22.859375 15.945312 -22.257812 14.90625 -21.0625 C 13.863281 -19.863281 13.34375 -18.546875 13.34375 -17.109375 C 13.34375 -15.679688 13.90625 -14.378906 15.03125 -13.203125 Z M 15.03125 -13.203125 "/></g></g></g><g fill="#000000" fill-opacity="1"><g transform="translate(222.405415, 169.035962)"><g><path d="M 2.609375 -28.578125 C 2.609375 -29.578125 2.640625 -30.328125 2.703125 -30.828125 C 2.765625 -31.328125 2.945312 -31.90625 3.25 -32.5625 C 3.863281 -33.6875 5.554688 -34.25 8.328125 -34.25 C 10.410156 -34.25 11.890625 -33.878906 12.765625 -33.140625 C 13.503906 -32.535156 13.894531 -31.601562 13.9375 -30.34375 C 13.976562 -29.90625 14 -29.273438 14 -28.453125 L 14 -5.671875 C 14 -4.671875 13.960938 -3.921875 13.890625 -3.421875 C 13.828125 -2.921875 13.625 -2.34375 13.28125 -1.6875 C 12.71875 -0.5625 11.046875 0 8.265625 0 C 5.535156 0 3.863281 -0.585938 3.25 -1.765625 C 2.945312 -2.410156 2.765625 -2.972656 2.703125 -3.453125 C 2.640625 -3.929688 2.609375 -4.691406 2.609375 -5.734375 Z M 13.3125 -40.65625 C 12.988281 -40.03125 12.414062 -39.585938 11.59375 -39.328125 C 10.769531 -39.066406 9.671875 -38.9375 8.296875 -38.9375 C 6.929688 -38.9375 5.835938 -39.066406 5.015625 -39.328125 C 4.191406 -39.585938 3.613281 -40.039062 3.28125 -40.6875 C 2.957031 -41.34375 2.765625 -41.921875 2.703125 -42.421875 C 2.640625 -42.921875 2.609375 -43.664062 2.609375 -44.65625 C 2.609375 -45.65625 2.640625 -46.40625 2.703125 -46.90625 C 2.765625 -47.40625 2.945312 -47.960938 3.25 -48.578125 C 3.863281 -49.742188 5.554688 -50.328125 8.328125 -50.328125 C 11.066406 -50.328125 12.71875 -49.742188 13.28125 -48.578125 C 13.625 -47.921875 13.828125 -47.34375 13.890625 -46.84375 C 13.960938 -46.34375 14 -45.59375 14 -44.59375 C 14 -43.601562 13.960938 -42.859375 13.890625 -42.359375 C 13.828125 -41.859375 13.632812 -41.289062 13.3125 -40.65625 Z M 13.3125 -40.65625 "/></g></g></g><g fill="#000000" fill-opacity="1"><g transform="translate(239.004516, 169.035962)"><g><path d="M 1.625 -17.125 C 1.625 -22.332031 3.445312 -26.628906 7.09375 -30.015625 C 10.738281 -33.398438 14.90625 -35.09375 19.59375 -35.09375 C 24.28125 -35.09375 28.425781 -33.410156 32.03125 -30.046875 C 35.632812 -26.679688 37.4375 -22.394531 37.4375 -17.1875 C 37.4375 -13.582031 36.503906 -10.378906 34.640625 -7.578125 C 32.773438 -4.785156 30.503906 -2.722656 27.828125 -1.390625 C 25.160156 -0.0664062 22.394531 0.59375 19.53125 0.59375 C 16.664062 0.59375 13.882812 -0.109375 11.1875 -1.515625 C 8.5 -2.929688 6.234375 -5.019531 4.390625 -7.78125 C 2.546875 -10.539062 1.625 -13.65625 1.625 -17.125 Z M 15.234375 -12.46875 C 16.617188 -11.40625 18.023438 -10.875 19.453125 -10.875 C 20.890625 -10.875 22.320312 -11.414062 23.75 -12.5 C 25.1875 -13.582031 25.90625 -15.1875 25.90625 -17.3125 C 25.90625 -19.445312 25.234375 -21.035156 23.890625 -22.078125 C 22.546875 -23.117188 21.09375 -23.640625 19.53125 -23.640625 C 17.96875 -23.640625 16.515625 -23.09375 15.171875 -22 C 13.828125 -20.914062 13.15625 -19.320312 13.15625 -17.21875 C 13.15625 -15.113281 13.847656 -13.53125 15.234375 -12.46875 Z M 15.234375 -12.46875 "/></g></g></g><g fill="#8c52ff" fill-opacity="1"><g transform="translate(127.698346, 231.535668)"><g><path d="M 3.328125 -6.703125 C 2.191406 -8.097656 1.625 -9.347656 1.625 -10.453125 C 1.625 -11.554688 2.554688 -13.019531 4.421875 -14.84375 C 5.515625 -15.882812 6.664062 -16.40625 7.875 -16.40625 C 9.09375 -16.40625 10.785156 -15.320312 12.953125 -13.15625 C 13.566406 -12.414062 14.4375 -11.707031 15.5625 -11.03125 C 16.6875 -10.363281 17.726562 -10.03125 18.6875 -10.03125 C 22.71875 -10.03125 24.734375 -11.675781 24.734375 -14.96875 C 24.734375 -15.96875 24.179688 -16.800781 23.078125 -17.46875 C 21.972656 -18.144531 20.59375 -18.632812 18.9375 -18.9375 C 17.289062 -19.25 15.515625 -19.738281 13.609375 -20.40625 C 11.703125 -21.082031 9.921875 -21.875 8.265625 -22.78125 C 6.617188 -23.695312 5.238281 -25.140625 4.125 -27.109375 C 3.019531 -29.085938 2.46875 -31.46875 2.46875 -34.25 C 2.46875 -38.070312 3.890625 -41.398438 6.734375 -44.234375 C 9.578125 -47.078125 13.453125 -48.5 18.359375 -48.5 C 20.960938 -48.5 23.335938 -48.160156 25.484375 -47.484375 C 27.640625 -46.816406 29.128906 -46.140625 29.953125 -45.453125 L 31.578125 -44.203125 C 32.921875 -42.953125 33.59375 -41.890625 33.59375 -41.015625 C 33.59375 -40.148438 33.070312 -38.957031 32.03125 -37.4375 C 30.550781 -35.269531 29.03125 -34.1875 27.46875 -34.1875 C 26.5625 -34.1875 25.4375 -34.617188 24.09375 -35.484375 C 23.957031 -35.566406 23.703125 -35.78125 23.328125 -36.125 C 22.960938 -36.476562 22.628906 -36.765625 22.328125 -36.984375 C 21.421875 -37.546875 20.257812 -37.828125 18.84375 -37.828125 C 17.4375 -37.828125 16.265625 -37.488281 15.328125 -36.8125 C 14.398438 -36.144531 13.9375 -35.210938 13.9375 -34.015625 C 13.9375 -32.828125 14.488281 -31.863281 15.59375 -31.125 C 16.695312 -30.382812 18.070312 -29.882812 19.71875 -29.625 C 21.375 -29.363281 23.175781 -28.960938 25.125 -28.421875 C 27.082031 -27.878906 28.882812 -27.21875 30.53125 -26.4375 C 32.1875 -25.65625 33.566406 -24.296875 34.671875 -22.359375 C 35.773438 -20.429688 36.328125 -18.054688 36.328125 -15.234375 C 36.328125 -12.410156 35.765625 -9.925781 34.640625 -7.78125 C 33.515625 -5.632812 32.035156 -3.972656 30.203125 -2.796875 C 26.691406 -0.492188 22.941406 0.65625 18.953125 0.65625 C 16.910156 0.65625 14.976562 0.40625 13.15625 -0.09375 C 11.332031 -0.59375 9.851562 -1.210938 8.71875 -1.953125 C 6.425781 -3.335938 4.820312 -4.679688 3.90625 -5.984375 Z M 3.328125 -6.703125 "/></g></g></g><g fill="#8c52ff" fill-opacity="1"><g transform="translate(165.648453, 231.535668)"><g><path d="M 21.609375 -34.1875 C 25.953125 -34.1875 29.566406 -32.535156 32.453125 -29.234375 C 35.335938 -25.929688 36.78125 -21.894531 36.78125 -17.125 L 36.78125 -5.671875 C 36.78125 -4.671875 36.75 -3.921875 36.6875 -3.421875 C 36.625 -2.921875 36.421875 -2.34375 36.078125 -1.6875 C 35.503906 -0.5625 33.832031 0 31.0625 0 C 28.40625 0 26.753906 -0.5625 26.109375 -1.6875 C 25.765625 -2.34375 25.554688 -2.929688 25.484375 -3.453125 C 25.421875 -3.972656 25.390625 -4.753906 25.390625 -5.796875 L 25.390625 -17.1875 C 25.390625 -18.96875 24.890625 -20.359375 23.890625 -21.359375 C 22.890625 -22.359375 21.617188 -22.859375 20.078125 -22.859375 C 18.546875 -22.859375 17.191406 -22.390625 16.015625 -21.453125 C 14.847656 -20.515625 14.175781 -19.460938 14 -18.296875 L 14 -5.671875 C 14 -4.671875 13.960938 -3.921875 13.890625 -3.421875 C 13.828125 -2.921875 13.625 -2.34375 13.28125 -1.6875 C 12.71875 -0.5625 11.046875 0 8.265625 0 C 5.535156 0 3.863281 -0.585938 3.25 -1.765625 C 2.945312 -2.410156 2.765625 -2.972656 2.703125 -3.453125 C 2.640625 -3.929688 2.609375 -4.691406 2.609375 -5.734375 L 2.609375 -44.671875 C 2.609375 -45.660156 2.640625 -46.40625 2.703125 -46.90625 C 2.765625 -47.40625 2.945312 -47.960938 3.25 -48.578125 C 3.863281 -49.742188 5.554688 -50.328125 8.328125 -50.328125 C 11.066406 -50.328125 12.71875 -49.742188 13.28125 -48.578125 C 13.625 -47.921875 13.828125 -47.34375 13.890625 -46.84375 C 13.960938 -46.34375 14 -45.59375 14 -44.59375 L 14 -30.203125 C 16.164062 -32.859375 18.703125 -34.1875 21.609375 -34.1875 Z M 21.609375 -34.1875 "/></g></g></g><g fill="#8c52ff" fill-opacity="1"><g transform="translate(205.030624, 231.535668)"><g><path d="M 1.625 -17.125 C 1.625 -22.332031 3.445312 -26.628906 7.09375 -30.015625 C 10.738281 -33.398438 14.90625 -35.09375 19.59375 -35.09375 C 24.28125 -35.09375 28.425781 -33.410156 32.03125 -30.046875 C 35.632812 -26.679688 37.4375 -22.394531 37.4375 -17.1875 C 37.4375 -13.582031 36.503906 -10.378906 34.640625 -7.578125 C 32.773438 -4.785156 30.503906 -2.722656 27.828125 -1.390625 C 25.160156 -0.0664062 22.394531 0.59375 19.53125 0.59375 C 16.664062 0.59375 13.882812 -0.109375 11.1875 -1.515625 C 8.5 -2.929688 6.234375 -5.019531 4.390625 -7.78125 C 2.546875 -10.539062 1.625 -13.65625 1.625 -17.125 Z M 15.234375 -12.46875 C 16.617188 -11.40625 18.023438 -10.875 19.453125 -10.875 C 20.890625 -10.875 22.320312 -11.414062 23.75 -12.5 C 25.1875 -13.582031 25.90625 -15.1875 25.90625 -17.3125 C 25.90625 -19.445312 25.234375 -21.035156 23.890625 -22.078125 C 22.546875 -23.117188 21.09375 -23.640625 19.53125 -23.640625 C 17.96875 -23.640625 16.515625 -23.09375 15.171875 -22 C 13.828125 -20.914062 13.15625 -19.320312 13.15625 -17.21875 C 13.15625 -15.113281 13.847656 -13.53125 15.234375 -12.46875 Z M 15.234375 -12.46875 "/></g></g></g><g fill="#8c52ff" fill-opacity="1"><g transform="translate(244.087332, 231.535668)"><g><path d="M 25.609375 -48.59375 C 25.941406 -49.226562 26.519531 -49.675781 27.34375 -49.9375 C 28.164062 -50.195312 29.257812 -50.328125 30.625 -50.328125 C 32 -50.328125 33.097656 -50.195312 33.921875 -49.9375 C 34.742188 -49.675781 35.316406 -49.21875 35.640625 -48.5625 C 35.972656 -47.914062 36.171875 -47.34375 36.234375 -46.84375 C 36.296875 -46.34375 36.328125 -45.59375 36.328125 -44.59375 L 36.328125 -5.734375 C 36.328125 -4.734375 36.296875 -3.984375 36.234375 -3.484375 C 36.171875 -2.984375 35.960938 -2.429688 35.609375 -1.828125 C 34.960938 -0.648438 33.128906 -0.0625 30.109375 -0.0625 C 27.097656 -0.0625 25.414062 -1.125 25.0625 -3.25 C 23.238281 -1.164062 20.703125 -0.125 17.453125 -0.125 C 13.546875 -0.125 9.984375 -1.828125 6.765625 -5.234375 C 3.554688 -8.648438 1.953125 -12.625 1.953125 -17.15625 C 1.953125 -21.6875 3.566406 -25.664062 6.796875 -29.09375 C 10.035156 -32.53125 13.585938 -34.25 17.453125 -34.25 C 20.660156 -34.25 23.15625 -33.160156 24.9375 -30.984375 L 24.9375 -44.671875 C 24.9375 -45.660156 24.96875 -46.40625 25.03125 -46.90625 C 25.09375 -47.40625 25.285156 -47.96875 25.609375 -48.59375 Z M 15.03125 -13.203125 C 16.164062 -12.035156 17.535156 -11.453125 19.140625 -11.453125 C 20.742188 -11.453125 22.078125 -12.035156 23.140625 -13.203125 C 24.203125 -14.378906 24.734375 -15.671875 24.734375 -17.078125 C 24.734375 -18.492188 24.222656 -19.8125 23.203125 -21.03125 C 22.191406 -22.25 20.816406 -22.859375 19.078125 -22.859375 C 17.335938 -22.859375 15.945312 -22.257812 14.90625 -21.0625 C 13.863281 -19.863281 13.34375 -18.546875 13.34375 -17.109375 C 13.34375 -15.679688 13.90625 -14.378906 15.03125 -13.203125 Z M 15.03125 -13.203125 "/></g></g></g><g fill="#8c52ff" fill-opacity="1"><g transform="translate(283.013853, 231.535668)"><g><path d="M 46.484375 -34.046875 C 49.265625 -32.835938 50.65625 -31.34375 50.65625 -29.5625 C 50.65625 -28.820312 50.304688 -27.632812 49.609375 -26 C 48.921875 -24.375 48.335938 -22.957031 47.859375 -21.75 L 40.6875 -4.296875 C 40.039062 -2.390625 38.957031 -1.046875 37.4375 -0.265625 C 36.789062 0.046875 35.96875 0.203125 34.96875 0.203125 C 33.96875 0.203125 33 -0.175781 32.0625 -0.9375 C 31.132812 -1.695312 30.515625 -2.46875 30.203125 -3.25 L 29.6875 -4.359375 C 29.34375 -5.234375 28.0625 -8.617188 25.84375 -14.515625 C 25.414062 -13.472656 24.773438 -11.769531 23.921875 -9.40625 C 23.078125 -7.039062 22.535156 -5.566406 22.296875 -4.984375 C 22.054688 -4.398438 21.90625 -4.007812 21.84375 -3.8125 C 21.78125 -3.613281 21.59375 -3.253906 21.28125 -2.734375 C 20.976562 -2.210938 20.632812 -1.757812 20.25 -1.375 C 19.207031 -0.320312 18.015625 0.203125 16.671875 0.203125 C 15.328125 0.203125 14.195312 -0.175781 13.28125 -0.9375 C 12.375 -1.695312 11.765625 -2.46875 11.453125 -3.25 L 1.625 -27.21875 C 1.195312 -28.519531 0.984375 -29.363281 0.984375 -29.75 C 0.984375 -31.488281 2.21875 -32.859375 4.6875 -33.859375 C 6.070312 -34.421875 7.195312 -34.703125 8.0625 -34.703125 C 8.9375 -34.703125 9.644531 -34.515625 10.1875 -34.140625 C 10.726562 -33.773438 11.109375 -33.40625 11.328125 -33.03125 C 11.546875 -32.664062 11.71875 -32.289062 11.84375 -31.90625 C 12.582031 -30.164062 14.125 -26.082031 16.46875 -19.65625 L 20.3125 -30.203125 C 20.570312 -31.078125 21.050781 -31.835938 21.75 -32.484375 C 23.007812 -33.742188 24.289062 -34.375 25.59375 -34.375 C 26.894531 -34.375 28.007812 -34.023438 28.9375 -33.328125 C 29.875 -32.640625 30.515625 -31.945312 30.859375 -31.25 L 31.375 -30.140625 C 33.550781 -24.066406 34.832031 -20.597656 35.21875 -19.734375 L 39.203125 -30.53125 C 40.242188 -33.3125 41.804688 -34.703125 43.890625 -34.703125 C 44.710938 -34.703125 45.578125 -34.484375 46.484375 -34.046875 Z M 46.484375 -34.046875 "/></g></g></g><g fill="#8c52ff" fill-opacity="1"><g transform="translate(334.633799, 231.535668)"><g><path d="M 35.6875 -21.25 C 35.6875 -18.582031 35.019531 -16.609375 33.6875 -15.328125 C 32.363281 -14.046875 30.898438 -13.40625 29.296875 -13.40625 L 13.875 -13.40625 C 13.875 -12.195312 14.585938 -11.175781 16.015625 -10.34375 C 17.453125 -9.519531 18.882812 -9.109375 20.3125 -9.109375 C 22.832031 -9.109375 24.804688 -9.367188 26.234375 -9.890625 L 26.953125 -10.15625 C 27.992188 -10.632812 28.863281 -10.875 29.5625 -10.875 C 30.945312 -10.875 32.140625 -9.894531 33.140625 -7.9375 C 33.703125 -6.769531 33.984375 -5.773438 33.984375 -4.953125 C 33.984375 -1.085938 29.363281 0.84375 20.125 0.84375 C 16.90625 0.84375 14.046875 0.289062 11.546875 -0.8125 C 9.054688 -1.914062 7.117188 -3.378906 5.734375 -5.203125 C 2.992188 -8.722656 1.625 -12.65625 1.625 -17 C 1.625 -22.46875 3.390625 -26.835938 6.921875 -30.109375 C 10.460938 -33.390625 14.882812 -35.03125 20.1875 -35.03125 C 26.21875 -35.03125 30.644531 -32.898438 33.46875 -28.640625 C 34.945312 -26.390625 35.6875 -23.925781 35.6875 -21.25 Z M 21.9375 -19.34375 C 23.59375 -19.34375 24.421875 -20.035156 24.421875 -21.421875 C 24.421875 -22.421875 24.039062 -23.222656 23.28125 -23.828125 C 22.519531 -24.429688 21.429688 -24.734375 20.015625 -24.734375 C 18.609375 -24.734375 17.207031 -24.160156 15.8125 -23.015625 C 14.425781 -21.867188 13.734375 -20.644531 13.734375 -19.34375 Z M 21.9375 -19.34375 "/></g></g></g><g fill="#000000" fill-opacity="1"><g transform="translate(125.87003, 258.469531)"><g><path d="M 6.308594 0.296875 C 7.628906 0.296875 8.949219 -0.0195312 9.824219 -0.617188 C 9.738281 -1 9.484375 -1.597656 9.226562 -1.980469 C 8.523438 -1.535156 7.566406 -1.257812 6.605469 -1.257812 C 3.964844 -1.257812 2.558594 -2.984375 2.558594 -5.710938 C 2.558594 -7.609375 3.089844 -8.757812 3.707031 -9.566406 C 4.390625 -9.910156 5.304688 -10.121094 6.328125 -10.121094 C 7.332031 -10.121094 8.289062 -9.886719 9.097656 -9.417969 C 9.441406 -9.824219 9.675781 -10.355469 9.761719 -10.890625 C 8.90625 -11.421875 7.757812 -11.699219 6.457031 -11.699219 C 2.855469 -11.699219 0.722656 -9.503906 0.722656 -5.710938 C 0.722656 -2.152344 2.664062 0.296875 6.308594 0.296875 Z M 6.308594 0.296875 "/></g></g></g><g fill="#000000" fill-opacity="1"><g transform="translate(141.106523, 258.469531)"><g><path d="M 1.34375 0.0429688 C 2.066406 0.128906 2.769531 0.0429688 3.046875 -0.0429688 L 3.046875 -4.816406 L 4.539062 -4.816406 L 8.203125 0.0859375 C 8.695312 0.105469 9.566406 -0.0195312 10.101562 -0.234375 L 6.328125 -5.050781 C 8.332031 -5.371094 9.355469 -6.457031 9.355469 -8.246094 C 9.355469 -10.378906 7.734375 -11.613281 5.027344 -11.613281 C 3.621094 -11.613281 2.257812 -11.464844 1.214844 -11.25 C 1.300781 -7.117188 1.320312 -3.429688 1.34375 0.0429688 Z M 3.046875 -6.222656 L 3.046875 -10.035156 C 3.046875 -10.035156 3.730469 -10.121094 4.792969 -10.121094 C 6.542969 -10.121094 7.542969 -9.441406 7.542969 -8.203125 C 7.542969 -7.414062 7.394531 -6.945312 7.03125 -6.5625 C 6.5625 -6.351562 5.859375 -6.222656 5.050781 -6.222656 Z M 3.046875 -6.222656 "/></g></g></g><g fill="#000000" fill-opacity="1"><g transform="translate(156.300399, 258.469531)"><g><path d="M 1.34375 0 L 8.800781 0 C 8.90625 -0.40625 8.90625 -1.085938 8.800781 -1.492188 L 3.046875 -1.492188 L 3.046875 -5.050781 L 7.882812 -5.050781 C 7.96875 -5.457031 7.96875 -6.09375 7.882812 -6.5 L 3.046875 -6.5 L 3.046875 -9.910156 L 8.671875 -9.910156 C 8.757812 -10.3125 8.757812 -10.996094 8.671875 -11.402344 L 3.472656 -11.402344 C 2.34375 -11.402344 1.746094 -11.335938 1.214844 -11.1875 C 1.300781 -7.179688 1.320312 -3.429688 1.34375 0 Z M 1.34375 0 "/></g></g></g><g fill="#000000" fill-opacity="1"><g transform="translate(170.684504, 258.469531)"><g><path d="M 6.671875 -11.402344 C 6.050781 -11.507812 5.007812 -11.507812 4.390625 -11.402344 L 0.214844 -0.148438 C 0.722656 0.0429688 1.429688 0.214844 1.9375 0.191406 L 3.070312 -3.046875 L 7.882812 -3.046875 L 9.054688 0.191406 C 9.566406 0.214844 10.335938 0.0429688 10.847656 -0.148438 Z M 3.578125 -4.476562 L 5.433594 -9.78125 L 7.375 -4.476562 Z M 3.578125 -4.476562 "/></g></g></g><g fill="#000000" fill-opacity="1"><g transform="translate(186.688152, 258.469531)"><g><path d="M 4.113281 0.0429688 C 4.835938 0.128906 5.539062 0.0429688 5.816406 -0.0429688 L 5.816406 -9.910156 L 9.441406 -9.910156 C 9.546875 -10.3125 9.546875 -10.996094 9.441406 -11.402344 L 0.382812 -11.402344 C 0.296875 -10.996094 0.296875 -10.3125 0.382812 -9.910156 L 4.007812 -9.910156 C 4.070312 -6.925781 4.113281 -3.175781 4.113281 0.0429688 Z M 4.113281 0.0429688 "/></g></g></g><g fill="#000000" fill-opacity="1"><g transform="translate(201.455846, 258.469531)"><g><path d="M 1.34375 0.0429688 C 2.066406 0.128906 2.769531 0.0429688 3.046875 -0.0429688 L 3.046875 -11.527344 C 2.472656 -11.550781 1.789062 -11.441406 1.214844 -11.230469 C 1.300781 -7.160156 1.320312 -3.429688 1.34375 0.0429688 Z M 1.34375 0.0429688 "/></g></g></g><g fill="#000000" fill-opacity="1"><g transform="translate(210.70432, 258.469531)"><g><path d="M 9.121094 -11.527344 L 5.625 -1.855469 L 2.003906 -11.527344 C 1.492188 -11.550781 0.722656 -11.421875 0.214844 -11.207031 L 4.476562 -0.0195312 C 5.070312 0.0859375 6.007812 0.0859375 6.585938 -0.0195312 L 10.847656 -11.207031 C 10.335938 -11.421875 9.632812 -11.550781 9.121094 -11.527344 Z M 9.121094 -11.527344 "/></g></g></g><g fill="#000000" fill-opacity="1"><g transform="translate(226.707967, 258.469531)"><g><path d="M 1.34375 0 L 8.800781 0 C 8.90625 -0.40625 8.90625 -1.085938 8.800781 -1.492188 L 3.046875 -1.492188 L 3.046875 -5.050781 L 7.882812 -5.050781 C 7.96875 -5.457031 7.96875 -6.09375 7.882812 -6.5 L 3.046875 -6.5 L 3.046875 -9.910156 L 8.671875 -9.910156 C 8.757812 -10.3125 8.757812 -10.996094 8.671875 -11.402344 L 3.472656 -11.402344 C 2.34375 -11.402344 1.746094 -11.335938 1.214844 -11.1875 C 1.300781 -7.179688 1.320312 -3.429688 1.34375 0 Z M 1.34375 0 "/></g></g></g><g fill="#000000" fill-opacity="1"><g transform="translate(241.09207, 258.469531)"><g/></g></g><g fill="#000000" fill-opacity="1"><g transform="translate(250.361836, 258.469531)"><g><path d="M 6.671875 -11.402344 C 6.050781 -11.507812 5.007812 -11.507812 4.390625 -11.402344 L 0.214844 -0.148438 C 0.722656 0.0429688 1.429688 0.214844 1.9375 0.191406 L 3.070312 -3.046875 L 7.882812 -3.046875 L 9.054688 0.191406 C 9.566406 0.214844 10.335938 0.0429688 10.847656 -0.148438 Z M 3.578125 -4.476562 L 5.433594 -9.78125 L 7.375 -4.476562 Z M 3.578125 -4.476562 "/></g></g></g><g fill="#000000" fill-opacity="1"><g transform="translate(266.365479, 258.469531)"><g><path d="M 6.414062 0.296875 C 8.246094 0.296875 9.652344 -0.128906 10.847656 -0.894531 L 10.847656 -6.394531 L 6.242188 -6.394531 C 6.160156 -6.007812 6.160156 -5.285156 6.242188 -4.902344 L 9.269531 -4.902344 L 9.269531 -1.726562 C 8.546875 -1.429688 7.757812 -1.257812 6.691406 -1.257812 C 3.984375 -1.257812 2.558594 -2.960938 2.558594 -5.710938 C 2.558594 -7.609375 3.089844 -8.757812 3.707031 -9.566406 C 4.453125 -9.910156 5.371094 -10.121094 6.605469 -10.121094 C 7.925781 -10.121094 9.140625 -9.800781 9.996094 -9.226562 C 10.3125 -9.652344 10.546875 -10.1875 10.675781 -10.71875 C 9.695312 -11.335938 8.289062 -11.699219 6.777344 -11.699219 C 2.855469 -11.699219 0.722656 -9.503906 0.722656 -5.710938 C 0.722656 -2.152344 2.640625 0.296875 6.414062 0.296875 Z M 6.414062 0.296875 "/></g></g></g><g fill="#000000" fill-opacity="1"><g transform="translate(283.285441, 258.469531)"><g><path d="M 1.34375 0 L 8.800781 0 C 8.90625 -0.40625 8.90625 -1.085938 8.800781 -1.492188 L 3.046875 -1.492188 L 3.046875 -5.050781 L 7.882812 -5.050781 C 7.96875 -5.457031 7.96875 -6.09375 7.882812 -6.5 L 3.046875 -6.5 L 3.046875 -9.910156 L 8.671875 -9.910156 C 8.757812 -10.3125 8.757812 -10.996094 8.671875 -11.402344 L 3.472656 -11.402344 C 2.34375 -11.402344 1.746094 -11.335938 1.214844 -11.1875 C 1.300781 -7.179688 1.320312 -3.429688 1.34375 0 Z M 1.34375 0 "/></g></g></g><g fill="#000000" fill-opacity="1"><g transform="translate(297.669554, 258.469531)"><g><path d="M 9.035156 -11.207031 C 9.097656 -8.351562 9.121094 -5.285156 9.164062 -3.003906 L 3.109375 -11.527344 C 2.492188 -11.550781 1.789062 -11.441406 1.214844 -11.230469 C 1.300781 -7.160156 1.320312 -3.429688 1.34375 0.0429688 C 1.960938 0.128906 2.683594 0.0429688 2.941406 -0.0195312 L 2.941406 -8.738281 L 9.164062 0.0625 C 9.589844 0.128906 10.464844 0.105469 10.78125 -0.0195312 L 10.78125 -11.507812 C 10.292969 -11.527344 9.609375 -11.421875 9.035156 -11.207031 Z M 9.035156 -11.207031 "/></g></g></g><g fill="#000000" fill-opacity="1"><g transform="translate(314.67476, 258.469531)"><g><path d="M 6.308594 0.296875 C 7.628906 0.296875 8.949219 -0.0195312 9.824219 -0.617188 C 9.738281 -1 9.484375 -1.597656 9.226562 -1.980469 C 8.523438 -1.535156 7.566406 -1.257812 6.605469 -1.257812 C 3.964844 -1.257812 2.558594 -2.984375 2.558594 -5.710938 C 2.558594 -7.609375 3.089844 -8.757812 3.707031 -9.566406 C 4.390625 -9.910156 5.304688 -10.121094 6.328125 -10.121094 C 7.332031 -10.121094 8.289062 -9.886719 9.097656 -9.417969 C 9.441406 -9.824219 9.675781 -10.355469 9.761719 -10.890625 C 8.90625 -11.421875 7.757812 -11.699219 6.457031 -11.699219 C 2.855469 -11.699219 0.722656 -9.503906 0.722656 -5.710938 C 0.722656 -2.152344 2.664062 0.296875 6.308594 0.296875 Z M 6.308594 0.296875 "/></g></g></g><g fill="#000000" fill-opacity="1"><g transform="translate(329.911259, 258.469531)"><g><path d="M 8.3125 -11.527344 L 5.15625 -5.730469 L 1.917969 -11.527344 C 1.40625 -11.550781 0.640625 -11.421875 0.128906 -11.207031 L 4.261719 -4.089844 C 4.285156 -2.535156 4.285156 -1.171875 4.285156 0.0429688 C 4.988281 0.128906 5.710938 0.0429688 5.964844 -0.0429688 L 5.964844 -4.089844 L 10.101562 -11.207031 C 9.589844 -11.421875 8.820312 -11.550781 8.3125 -11.527344 Z M 8.3125 -11.527344 "/></g></g></g></svg>