<svg xmlns="http://www.w3.org/2000/svg" xmlns:xlink="http://www.w3.org/1999/xlink" width="250" zoomAndPan="magnify" viewBox="0 0 187.5 187.499992" height="250" preserveAspectRatio="xMidYMid meet" version="1.0"><defs><g/><clipPath id="ebf446a6d9"><path d="M 28.1875 85 L 31 85 L 31 103 L 28.1875 103 Z M 28.1875 85 " clip-rule="nonzero"/></clipPath><clipPath id="b0d7aa7ba8"><path d="M 30.652344 85.820312 C 30.652344 85.386719 30.066406 85.265625 29.894531 85.664062 C 28.789062 88.128906 28.1875 90.871094 28.1875 93.75 C 28.1875 96.632812 28.789062 99.371094 29.894531 101.835938 C 30.066406 102.234375 30.652344 102.097656 30.652344 101.679688 Z M 30.652344 85.820312 " clip-rule="nonzero"/></clipPath><clipPath id="8560d00d94"><path d="M 31 81 L 37 81 L 37 107 L 31 107 Z M 31 81 " clip-rule="nonzero"/></clipPath><clipPath id="236483d543"><path d="M 36.8125 81.726562 C 36.8125 81.34375 36.347656 81.1875 36.105469 81.480469 C 33.464844 84.847656 31.878906 89.117188 31.878906 93.75 C 31.878906 98.382812 33.449219 102.636719 36.105469 106.019531 C 36.328125 106.3125 36.8125 106.15625 36.8125 105.777344 Z M 36.8125 81.726562 " clip-rule="nonzero"/></clipPath><clipPath id="656e44bfb9"><path d="M 35 76 L 46 76 L 46 111 L 35 111 Z M 35 76 " clip-rule="nonzero"/></clipPath><clipPath id="7ffe82e58c"><path d="M 45.4375 110.21875 L 45.4375 77.265625 C 45.4375 76.953125 45.09375 76.761719 44.832031 76.9375 C 39.277344 80.441406 35.585938 86.652344 35.585938 93.75 C 35.585938 100.847656 39.277344 107.058594 44.832031 110.566406 C 45.09375 110.722656 45.4375 110.53125 45.4375 110.21875 Z M 45.4375 110.21875 " clip-rule="nonzero"/></clipPath><linearGradient x1="42.900003" gradientTransform="matrix(0.1725, 0, 0, 0.173528, 28.187265, 73.916166)" y1="114.286003" x2="99.999997" gradientUnits="userSpaceOnUse" y2="114.286003" id="835a9385dd"><stop stop-opacity="1" stop-color="rgb(100%, 57.28302%, 48.580933%)" offset="0"/><stop stop-opacity="1" stop-color="rgb(100%, 57.202148%, 48.48175%)" offset="0.0078125"/><stop stop-opacity="1" stop-color="rgb(100%, 57.040405%, 48.286438%)" offset="0.015625"/><stop stop-opacity="1" stop-color="rgb(100%, 56.877136%, 48.0896%)" offset="0.0234375"/><stop stop-opacity="1" stop-color="rgb(100%, 56.715393%, 47.894287%)" offset="0.03125"/><stop stop-opacity="1" stop-color="rgb(100%, 56.552124%, 47.698975%)" offset="0.0390625"/><stop stop-opacity="1" stop-color="rgb(100%, 56.390381%, 47.502136%)" offset="0.046875"/><stop stop-opacity="1" stop-color="rgb(100%, 56.227112%, 47.306824%)" offset="0.0546875"/><stop stop-opacity="1" stop-color="rgb(100%, 56.065369%, 47.109985%)" offset="0.0625"/><stop stop-opacity="1" stop-color="rgb(100%, 55.903625%, 46.914673%)" offset="0.0703125"/><stop stop-opacity="1" stop-color="rgb(100%, 55.740356%, 46.717834%)" offset="0.078125"/><stop stop-opacity="1" stop-color="rgb(100%, 55.496216%, 46.424866%)" offset="0.09375"/><stop stop-opacity="1" stop-color="rgb(100%, 55.253601%, 46.130371%)" offset="0.101563"/><stop stop-opacity="1" stop-color="rgb(100%, 55.091858%, 45.935059%)" offset="0.109375"/><stop stop-opacity="1" stop-color="rgb(100%, 54.928589%, 45.73822%)" offset="0.117188"/><stop stop-opacity="1" stop-color="rgb(100%, 54.766846%, 45.542908%)" offset="0.125"/><stop stop-opacity="1" stop-color="rgb(100%, 54.603577%, 45.347595%)" offset="0.132812"/><stop stop-opacity="1" stop-color="rgb(100%, 54.441833%, 45.150757%)" offset="0.140625"/><stop stop-opacity="1" stop-color="rgb(100%, 54.278564%, 44.955444%)" offset="0.148438"/><stop stop-opacity="1" stop-color="rgb(100%, 54.116821%, 44.758606%)" offset="0.15625"/><stop stop-opacity="1" stop-color="rgb(100%, 53.955078%, 44.563293%)" offset="0.164062"/><stop stop-opacity="1" stop-color="rgb(100%, 53.791809%, 44.366455%)" offset="0.171875"/><stop stop-opacity="1" stop-color="rgb(100%, 53.547668%, 44.073486%)" offset="0.1875"/><stop stop-opacity="1" stop-color="rgb(100%, 53.305054%, 43.778992%)" offset="0.195313"/><stop stop-opacity="1" stop-color="rgb(100%, 53.143311%, 43.583679%)" offset="0.203125"/><stop stop-opacity="1" stop-color="rgb(100%, 52.980042%, 43.386841%)" offset="0.210938"/><stop stop-opacity="1" stop-color="rgb(100%, 52.818298%, 43.191528%)" offset="0.21875"/><stop stop-opacity="1" stop-color="rgb(100%, 52.655029%, 42.996216%)" offset="0.226562"/><stop stop-opacity="1" stop-color="rgb(100%, 52.493286%, 42.799377%)" offset="0.234375"/><stop stop-opacity="1" stop-color="rgb(100%, 52.330017%, 42.604065%)" offset="0.242188"/><stop stop-opacity="1" stop-color="rgb(100%, 52.168274%, 42.407227%)" offset="0.25"/><stop stop-opacity="1" stop-color="rgb(100%, 52.006531%, 42.211914%)" offset="0.257812"/><stop stop-opacity="1" stop-color="rgb(100%, 51.843262%, 42.015076%)" offset="0.265625"/><stop stop-opacity="1" stop-color="rgb(100%, 51.599121%, 41.722107%)" offset="0.28125"/><stop stop-opacity="1" stop-color="rgb(100%, 51.356506%, 41.427612%)" offset="0.289062"/><stop stop-opacity="1" stop-color="rgb(100%, 51.194763%, 41.2323%)" offset="0.296875"/><stop stop-opacity="1" stop-color="rgb(100%, 51.031494%, 41.035461%)" offset="0.304688"/><stop stop-opacity="1" stop-color="rgb(100%, 50.869751%, 40.840149%)" offset="0.3125"/><stop stop-opacity="1" stop-color="rgb(100%, 50.706482%, 40.644836%)" offset="0.320312"/><stop stop-opacity="1" stop-color="rgb(100%, 50.544739%, 40.447998%)" offset="0.328125"/><stop stop-opacity="1" stop-color="rgb(100%, 50.38147%, 40.252686%)" offset="0.335938"/><stop stop-opacity="1" stop-color="rgb(100%, 50.219727%, 40.055847%)" offset="0.34375"/><stop stop-opacity="1" stop-color="rgb(100%, 49.975586%, 39.762878%)" offset="0.359375"/><stop stop-opacity="1" stop-color="rgb(100%, 49.732971%, 39.468384%)" offset="0.367188"/><stop stop-opacity="1" stop-color="rgb(100%, 49.569702%, 39.273071%)" offset="0.375"/><stop stop-opacity="1" stop-color="rgb(100%, 49.407959%, 39.076233%)" offset="0.382813"/><stop stop-opacity="1" stop-color="rgb(100%, 49.246216%, 38.88092%)" offset="0.390625"/><stop stop-opacity="1" stop-color="rgb(100%, 49.082947%, 38.684082%)" offset="0.398438"/><stop stop-opacity="1" stop-color="rgb(100%, 48.921204%, 38.48877%)" offset="0.40625"/><stop stop-opacity="1" stop-color="rgb(100%, 48.757935%, 38.293457%)" offset="0.414063"/><stop stop-opacity="1" stop-color="rgb(100%, 48.596191%, 38.096619%)" offset="0.421875"/><stop stop-opacity="1" stop-color="rgb(100%, 48.432922%, 37.901306%)" offset="0.429688"/><stop stop-opacity="1" stop-color="rgb(100%, 48.271179%, 37.704468%)" offset="0.4375"/><stop stop-opacity="1" stop-color="rgb(100%, 48.027039%, 37.411499%)" offset="0.453125"/><stop stop-opacity="1" stop-color="rgb(100%, 47.784424%, 37.117004%)" offset="0.460938"/><stop stop-opacity="1" stop-color="rgb(100%, 47.621155%, 36.921692%)" offset="0.46875"/><stop stop-opacity="1" stop-color="rgb(100%, 47.459412%, 36.724854%)" offset="0.476562"/><stop stop-opacity="1" stop-color="rgb(100%, 47.297668%, 36.529541%)" offset="0.484375"/><stop stop-opacity="1" stop-color="rgb(100%, 47.134399%, 36.332703%)" offset="0.492188"/><stop stop-opacity="1" stop-color="rgb(100%, 46.972656%, 36.13739%)" offset="0.5"/><stop stop-opacity="1" stop-color="rgb(100%, 46.809387%, 35.942078%)" offset="0.507812"/><stop stop-opacity="1" stop-color="rgb(100%, 46.647644%, 35.745239%)" offset="0.515625"/><stop stop-opacity="1" stop-color="rgb(100%, 46.485901%, 35.549927%)" offset="0.523437"/><stop stop-opacity="1" stop-color="rgb(100%, 46.322632%, 35.353088%)" offset="0.53125"/><stop stop-opacity="1" stop-color="rgb(100%, 46.078491%, 35.06012%)" offset="0.546875"/><stop stop-opacity="1" stop-color="rgb(100%, 45.835876%, 34.765625%)" offset="0.554687"/><stop stop-opacity="1" stop-color="rgb(100%, 45.672607%, 34.570312%)" offset="0.5625"/><stop stop-opacity="1" stop-color="rgb(100%, 45.510864%, 34.373474%)" offset="0.570312"/><stop stop-opacity="1" stop-color="rgb(100%, 45.349121%, 34.178162%)" offset="0.578125"/><stop stop-opacity="1" stop-color="rgb(100%, 45.185852%, 33.981323%)" offset="0.585938"/><stop stop-opacity="1" stop-color="rgb(100%, 45.024109%, 33.786011%)" offset="0.59375"/><stop stop-opacity="1" stop-color="rgb(100%, 44.86084%, 33.590698%)" offset="0.601562"/><stop stop-opacity="1" stop-color="rgb(100%, 44.699097%, 33.39386%)" offset="0.609375"/><stop stop-opacity="1" stop-color="rgb(100%, 44.537354%, 33.198547%)" offset="0.617188"/><stop stop-opacity="1" stop-color="rgb(100%, 44.374084%, 33.001709%)" offset="0.625"/><stop stop-opacity="1" stop-color="rgb(100%, 44.129944%, 32.70874%)" offset="0.640625"/><stop stop-opacity="1" stop-color="rgb(100%, 43.887329%, 32.414246%)" offset="0.648438"/><stop stop-opacity="1" stop-color="rgb(100%, 43.72406%, 32.218933%)" offset="0.65625"/><stop stop-opacity="1" stop-color="rgb(100%, 43.562317%, 32.022095%)" offset="0.664062"/><stop stop-opacity="1" stop-color="rgb(100%, 43.400574%, 31.826782%)" offset="0.671875"/><stop stop-opacity="1" stop-color="rgb(100%, 43.237305%, 31.629944%)" offset="0.679688"/><stop stop-opacity="1" stop-color="rgb(100%, 43.075562%, 31.434631%)" offset="0.6875"/><stop stop-opacity="1" stop-color="rgb(100%, 42.912292%, 31.239319%)" offset="0.695312"/><stop stop-opacity="1" stop-color="rgb(100%, 42.750549%, 31.04248%)" offset="0.703125"/><stop stop-opacity="1" stop-color="rgb(100%, 42.588806%, 30.847168%)" offset="0.710938"/><stop stop-opacity="1" stop-color="rgb(100%, 42.425537%, 30.65033%)" offset="0.71875"/><stop stop-opacity="1" stop-color="rgb(100%, 42.181396%, 30.357361%)" offset="0.734375"/><stop stop-opacity="1" stop-color="rgb(100%, 41.938782%, 30.062866%)" offset="0.742188"/><stop stop-opacity="1" stop-color="rgb(100%, 41.775513%, 29.867554%)" offset="0.75"/><stop stop-opacity="1" stop-color="rgb(100%, 41.61377%, 29.670715%)" offset="0.757813"/><stop stop-opacity="1" stop-color="rgb(100%, 41.452026%, 29.475403%)" offset="0.765625"/><stop stop-opacity="1" stop-color="rgb(100%, 41.288757%, 29.28009%)" offset="0.773438"/><stop stop-opacity="1" stop-color="rgb(100%, 41.127014%, 29.083252%)" offset="0.78125"/><stop stop-opacity="1" stop-color="rgb(100%, 40.963745%, 28.887939%)" offset="0.789063"/><stop stop-opacity="1" stop-color="rgb(100%, 40.802002%, 28.691101%)" offset="0.796875"/><stop stop-opacity="1" stop-color="rgb(100%, 40.640259%, 28.495789%)" offset="0.804688"/><stop stop-opacity="1" stop-color="rgb(100%, 40.47699%, 28.29895%)" offset="0.8125"/><stop stop-opacity="1" stop-color="rgb(100%, 40.232849%, 28.005981%)" offset="0.828125"/><stop stop-opacity="1" stop-color="rgb(100%, 39.990234%, 27.711487%)" offset="0.835938"/><stop stop-opacity="1" stop-color="rgb(100%, 39.826965%, 27.516174%)" offset="0.84375"/><stop stop-opacity="1" stop-color="rgb(100%, 39.665222%, 27.319336%)" offset="0.851563"/><stop stop-opacity="1" stop-color="rgb(100%, 39.503479%, 27.124023%)" offset="0.859375"/><stop stop-opacity="1" stop-color="rgb(100%, 39.34021%, 26.928711%)" offset="0.867188"/><stop stop-opacity="1" stop-color="rgb(100%, 39.178467%, 26.731873%)" offset="0.875"/><stop stop-opacity="1" stop-color="rgb(100%, 39.015198%, 26.53656%)" offset="0.882812"/><stop stop-opacity="1" stop-color="rgb(100%, 38.853455%, 26.339722%)" offset="0.890625"/><stop stop-opacity="1" stop-color="rgb(100%, 38.691711%, 26.144409%)" offset="0.898437"/><stop stop-opacity="1" stop-color="rgb(100%, 38.528442%, 25.947571%)" offset="0.90625"/><stop stop-opacity="1" stop-color="rgb(100%, 38.284302%, 25.654602%)" offset="0.921875"/><stop stop-opacity="1" stop-color="rgb(100%, 38.041687%, 25.360107%)" offset="0.929688"/><stop stop-opacity="1" stop-color="rgb(100%, 37.878418%, 25.164795%)" offset="0.9375"/><stop stop-opacity="1" stop-color="rgb(100%, 37.716675%, 24.967957%)" offset="0.945312"/><stop stop-opacity="1" stop-color="rgb(100%, 37.554932%, 24.772644%)" offset="0.953125"/><stop stop-opacity="1" stop-color="rgb(100%, 37.391663%, 24.577332%)" offset="0.960938"/><stop stop-opacity="1" stop-color="rgb(100%, 37.229919%, 24.380493%)" offset="0.96875"/><stop stop-opacity="1" stop-color="rgb(100%, 37.06665%, 24.185181%)" offset="0.976562"/><stop stop-opacity="1" stop-color="rgb(100%, 36.904907%, 23.988342%)" offset="0.984375"/><stop stop-opacity="1" stop-color="rgb(100%, 36.743164%, 23.79303%)" offset="0.992188"/><stop stop-opacity="1" stop-color="rgb(100%, 36.579895%, 23.596191%)" offset="1"/></linearGradient><clipPath id="a9ff8e0b13"><path d="M 40 73.875 L 79.9375 73.875 L 79.9375 113.625 L 40 113.625 Z M 40 73.875 " clip-rule="nonzero"/></clipPath><clipPath id="c9e499564f"><path d="M 79.9375 93.75 C 79.9375 94.398438 79.90625 95.046875 79.84375 95.695312 C 79.777344 96.339844 79.683594 96.984375 79.558594 97.621094 C 79.433594 98.257812 79.277344 98.886719 79.089844 99.507812 C 78.902344 100.128906 78.683594 100.742188 78.4375 101.339844 C 78.1875 101.941406 77.914062 102.527344 77.609375 103.101562 C 77.304688 103.671875 76.972656 104.230469 76.613281 104.769531 C 76.253906 105.308594 75.871094 105.832031 75.460938 106.332031 C 75.050781 106.835938 74.617188 107.316406 74.164062 107.773438 C 73.707031 108.234375 73.226562 108.671875 72.730469 109.082031 C 72.230469 109.496094 71.710938 109.882812 71.175781 110.242188 C 70.636719 110.601562 70.085938 110.9375 69.515625 111.242188 C 68.945312 111.546875 68.363281 111.828125 67.765625 112.074219 C 67.167969 112.324219 66.5625 112.542969 65.945312 112.730469 C 65.324219 112.917969 64.699219 113.078125 64.066406 113.203125 C 63.433594 113.332031 62.796875 113.425781 62.152344 113.488281 C 61.511719 113.554688 60.867188 113.585938 60.21875 113.585938 C 59.574219 113.585938 58.929688 113.554688 58.289062 113.488281 C 57.644531 113.425781 57.007812 113.332031 56.375 113.203125 C 55.742188 113.078125 55.113281 112.917969 54.496094 112.730469 C 53.878906 112.542969 53.273438 112.324219 52.675781 112.074219 C 52.078125 111.828125 51.496094 111.546875 50.925781 111.242188 C 50.355469 110.9375 49.804688 110.601562 49.265625 110.242188 C 48.730469 109.882812 48.210938 109.496094 47.710938 109.082031 C 47.214844 108.671875 46.734375 108.234375 46.277344 107.773438 C 45.820312 107.316406 45.390625 106.835938 44.980469 106.332031 C 44.570312 105.832031 44.183594 105.308594 43.828125 104.769531 C 43.46875 104.230469 43.136719 103.671875 42.832031 103.101562 C 42.527344 102.527344 42.25 101.941406 42.003906 101.339844 C 41.757812 100.742188 41.539062 100.128906 41.351562 99.507812 C 41.164062 98.886719 41.007812 98.257812 40.882812 97.621094 C 40.757812 96.984375 40.660156 96.339844 40.597656 95.695312 C 40.535156 95.046875 40.503906 94.398438 40.503906 93.75 C 40.503906 93.101562 40.535156 92.453125 40.597656 91.804688 C 40.660156 91.160156 40.757812 90.519531 40.882812 89.882812 C 41.007812 89.242188 41.164062 88.613281 41.351562 87.992188 C 41.539062 87.371094 41.757812 86.761719 42.003906 86.160156 C 42.25 85.558594 42.527344 84.972656 42.832031 84.402344 C 43.136719 83.828125 43.46875 83.269531 43.828125 82.730469 C 44.183594 82.191406 44.570312 81.667969 44.980469 81.167969 C 45.390625 80.664062 45.820312 80.183594 46.277344 79.726562 C 46.734375 79.265625 47.214844 78.832031 47.710938 78.417969 C 48.210938 78.007812 48.730469 77.621094 49.265625 77.257812 C 49.804688 76.898438 50.355469 76.5625 50.925781 76.257812 C 51.496094 75.953125 52.078125 75.675781 52.675781 75.425781 C 53.273438 75.175781 53.878906 74.957031 54.496094 74.769531 C 55.113281 74.582031 55.742188 74.425781 56.375 74.296875 C 57.007812 74.171875 57.644531 74.074219 58.289062 74.011719 C 58.929688 73.949219 59.574219 73.917969 60.21875 73.917969 C 60.867188 73.917969 61.511719 73.949219 62.152344 74.011719 C 62.796875 74.074219 63.433594 74.171875 64.066406 74.296875 C 64.699219 74.425781 65.324219 74.582031 65.945312 74.769531 C 66.5625 74.957031 67.167969 75.175781 67.765625 75.425781 C 68.363281 75.675781 68.945312 75.953125 69.515625 76.257812 C 70.085938 76.5625 70.636719 76.898438 71.175781 77.257812 C 71.710938 77.621094 72.230469 78.007812 72.730469 78.417969 C 73.226562 78.832031 73.707031 79.265625 74.164062 79.726562 C 74.617188 80.183594 75.050781 80.664062 75.460938 81.167969 C 75.871094 81.667969 76.253906 82.191406 76.613281 82.730469 C 76.972656 83.269531 77.304688 83.828125 77.609375 84.402344 C 77.914062 84.972656 78.1875 85.558594 78.4375 86.160156 C 78.683594 86.761719 78.902344 87.371094 79.089844 87.992188 C 79.277344 88.613281 79.433594 89.242188 79.558594 89.882812 C 79.683594 90.519531 79.777344 91.160156 79.84375 91.804688 C 79.90625 92.453125 79.9375 93.101562 79.9375 93.75 Z M 79.9375 93.75 " clip-rule="nonzero"/></clipPath></defs><g clip-path="url(#ebf446a6d9)"><g clip-path="url(#b0d7aa7ba8)"><path fill="#ff927c" d="M 28.1875 85.265625 L 28.1875 102.234375 L 30.652344 102.234375 L 30.652344 85.265625 Z M 28.1875 85.265625 " fill-opacity="1" fill-rule="nonzero"/></g></g><g clip-path="url(#8560d00d94)"><g clip-path="url(#236483d543)"><path fill="#ff927c" d="M 31.878906 81.1875 L 31.878906 106.3125 L 36.8125 106.3125 L 36.8125 81.1875 Z M 31.878906 81.1875 " fill-opacity="1" fill-rule="nonzero"/></g></g><g clip-path="url(#656e44bfb9)"><g clip-path="url(#7ffe82e58c)"><path fill="url(#835a9385dd)" d="M 35.585938 76.761719 L 35.585938 110.722656 L 45.4375 110.722656 L 45.4375 76.761719 Z M 35.585938 76.761719 " fill-rule="nonzero"/></g></g><g clip-path="url(#a9ff8e0b13)"><g clip-path="url(#c9e499564f)"><path fill="#ff5d3c" d="M 40.503906 73.917969 L 40.503906 113.585938 L 79.9375 113.585938 L 79.9375 73.917969 Z M 40.503906 73.917969 " fill-opacity="1" fill-rule="nonzero"/></g></g><g fill="#ffffff" fill-opacity="1"><g transform="translate(86.608399, 96.723703)"><g><path d="M 0.757812 -4.261719 C 0.855469 -1.90625 2.316406 0.332031 6.578125 0.332031 C 10.625 0.332031 12.199219 -1.324219 12.199219 -3.871094 C 12.199219 -6.128906 10.875 -7.375 8.25 -7.667969 L 5.546875 -7.996094 C 4.476562 -8.113281 4.027344 -8.679688 4.027344 -9.4375 C 4.027344 -10.449219 4.863281 -11.089844 6.441406 -11.089844 C 8.152344 -11.089844 9.007812 -10.3125 9.164062 -9.105469 L 12.0625 -9.105469 C 11.90625 -11.402344 10.3125 -13.269531 6.441406 -13.269531 C 2.800781 -13.269531 1.050781 -11.597656 1.050781 -9.261719 C 1.050781 -7.121094 2.335938 -5.855469 4.628906 -5.585938 L 7.492188 -5.214844 C 8.640625 -5.058594 9.222656 -4.554688 9.222656 -3.582031 C 9.222656 -2.550781 8.582031 -1.867188 6.617188 -1.867188 C 4.574219 -1.867188 3.714844 -2.878906 3.636719 -4.261719 Z M 0.757812 -4.261719 "/></g></g></g><g fill="#ffffff" fill-opacity="1"><g transform="translate(99.60525, 96.723703)"><g><path d="M 7.511719 -10.039062 C 5.738281 -10.039062 4.628906 -9.144531 4.007812 -7.820312 L 4.007812 -13.621094 L 1.128906 -13.621094 L 1.128906 0 L 4.007812 0 L 4.007812 -4.417969 C 4.007812 -6.730469 4.863281 -7.707031 6.402344 -7.707031 C 7.589844 -7.707031 8.25 -7.082031 8.25 -5.527344 L 8.25 0 L 11.128906 0 L 11.128906 -5.972656 C 11.128906 -8.523438 10.058594 -10.039062 7.511719 -10.039062 Z M 7.511719 -10.039062 "/></g></g></g><g fill="#ffffff" fill-opacity="1"><g transform="translate(111.72656, 96.723703)"><g><path d="M 6.109375 0.3125 C 10 0.3125 11.5 -2.179688 11.5 -4.882812 C 11.5 -7.550781 10 -10.039062 6.109375 -10.039062 C 2.238281 -10.039062 0.71875 -7.570312 0.71875 -4.882812 C 0.71875 -2.160156 2.238281 0.3125 6.109375 0.3125 Z M 3.617188 -4.863281 C 3.617188 -7.023438 4.359375 -7.78125 6.109375 -7.78125 C 7.878906 -7.78125 8.621094 -7.023438 8.621094 -4.863281 C 8.621094 -2.703125 7.878906 -1.945312 6.109375 -1.945312 C 4.359375 -1.945312 3.617188 -2.703125 3.617188 -4.863281 Z M 3.617188 -4.863281 "/></g></g></g><g fill="#ffffff" fill-opacity="1"><g transform="translate(123.945155, 96.723703)"><g><path d="M 8.679688 -13.621094 L 8.679688 -8.269531 C 7.996094 -9.378906 6.867188 -10.039062 5.195312 -10.039062 C 2.023438 -10.039062 0.71875 -7.648438 0.71875 -4.882812 C 0.71875 -2.0625 2.023438 0.3125 5.195312 0.3125 C 6.867188 0.3125 7.996094 -0.332031 8.679688 -1.441406 L 8.679688 0 L 11.558594 0 L 11.558594 -13.621094 Z M 6.089844 -1.945312 C 4.261719 -1.945312 3.597656 -2.859375 3.597656 -4.863281 C 3.597656 -6.886719 4.261719 -7.78125 6.089844 -7.78125 C 7.898438 -7.78125 8.679688 -6.847656 8.679688 -4.863281 C 8.679688 -2.878906 7.898438 -1.945312 6.089844 -1.945312 Z M 6.089844 -1.945312 "/></g></g></g><g fill="#ffffff" fill-opacity="1"><g transform="translate(136.572331, 96.723703)"><g><path d="M 14.691406 -9.730469 L 12.84375 -2.160156 L 10.46875 -9.730469 L 7.472656 -9.730469 L 5.097656 -2.140625 L 3.230469 -9.730469 L 0.3125 -9.730469 L 2.878906 0 L 6.90625 0 L 8.851562 -6.730469 L 10.816406 0 L 14.828125 0 L 17.394531 -9.730469 Z M 14.691406 -9.730469 "/></g></g></g><g fill="#ffffff" fill-opacity="1"><g transform="translate(154.277619, 96.723703)"><g><path d="M 6.011719 -1.671875 C 4.628906 -1.671875 3.714844 -2.277344 3.542969 -4.125 L 10.953125 -4.125 C 10.992188 -4.339844 10.992188 -4.613281 10.992188 -4.902344 C 10.992188 -7.648438 9.632812 -10.039062 5.953125 -10.039062 C 2.355469 -10.039062 0.71875 -7.707031 0.71875 -4.882812 C 0.71875 -2.140625 2.160156 0.3125 5.953125 0.3125 C 9.457031 0.3125 10.703125 -1.382812 10.972656 -2.9375 L 8.210938 -2.9375 C 7.9375 -2.21875 7.277344 -1.671875 6.011719 -1.671875 Z M 5.992188 -8.09375 C 7.433594 -8.09375 8.152344 -7.355469 8.25 -5.875 L 3.5625 -5.875 C 3.792969 -7.53125 4.613281 -8.09375 5.992188 -8.09375 Z M 5.992188 -8.09375 "/></g></g></g><g fill="#ffffff" fill-opacity="1"><g transform="translate(86.608399, 105.335782)"><g><path d="M 2.359375 0.078125 C 1.742188 0.078125 1.265625 -0.128906 0.921875 -0.546875 C 0.578125 -0.960938 0.40625 -1.582031 0.40625 -2.40625 C 0.40625 -3.21875 0.578125 -3.84375 0.921875 -4.28125 C 1.265625 -4.71875 1.742188 -4.9375 2.359375 -4.9375 C 2.765625 -4.9375 3.101562 -4.84375 3.375 -4.65625 C 3.65625 -4.46875 3.875 -4.207031 4.03125 -3.875 L 3.546875 -3.59375 C 3.453125 -3.84375 3.304688 -4.039062 3.109375 -4.1875 C 2.910156 -4.34375 2.660156 -4.421875 2.359375 -4.421875 C 2.148438 -4.421875 1.960938 -4.378906 1.796875 -4.296875 C 1.628906 -4.210938 1.488281 -4.097656 1.375 -3.953125 C 1.257812 -3.804688 1.171875 -3.632812 1.109375 -3.4375 C 1.054688 -3.238281 1.03125 -3.015625 1.03125 -2.765625 L 1.03125 -2.03125 C 1.03125 -1.53125 1.144531 -1.140625 1.375 -0.859375 C 1.601562 -0.578125 1.929688 -0.4375 2.359375 -0.4375 C 2.671875 -0.4375 2.929688 -0.515625 3.140625 -0.671875 C 3.347656 -0.835938 3.5 -1.050781 3.59375 -1.3125 L 4.0625 -1.015625 C 3.90625 -0.671875 3.679688 -0.398438 3.390625 -0.203125 C 3.109375 -0.015625 2.765625 0.078125 2.359375 0.078125 Z M 2.359375 0.078125 "/></g></g></g><g fill="#ffffff" fill-opacity="1"><g transform="translate(90.922428, 105.335782)"><g><path d="M 0.59375 0 L 0.59375 -3.59375 L 1.140625 -3.59375 L 1.140625 -2.921875 L 1.1875 -2.921875 C 1.25 -3.097656 1.363281 -3.253906 1.53125 -3.390625 C 1.695312 -3.523438 1.925781 -3.59375 2.21875 -3.59375 L 2.4375 -3.59375 L 2.4375 -3.03125 L 2.109375 -3.03125 C 1.804688 -3.03125 1.566406 -2.972656 1.390625 -2.859375 C 1.222656 -2.742188 1.140625 -2.601562 1.140625 -2.4375 L 1.140625 0 Z M 0.59375 0 "/></g></g></g><g fill="#ffffff" fill-opacity="1"><g transform="translate(93.471942, 105.335782)"><g><path d="M 1.9375 0.078125 C 1.695312 0.078125 1.476562 0.0351562 1.28125 -0.046875 C 1.082031 -0.140625 0.910156 -0.265625 0.765625 -0.421875 C 0.628906 -0.585938 0.519531 -0.785156 0.4375 -1.015625 C 0.363281 -1.242188 0.328125 -1.503906 0.328125 -1.796875 C 0.328125 -2.078125 0.363281 -2.332031 0.4375 -2.5625 C 0.519531 -2.789062 0.628906 -2.988281 0.765625 -3.15625 C 0.910156 -3.320312 1.082031 -3.445312 1.28125 -3.53125 C 1.476562 -3.625 1.695312 -3.671875 1.9375 -3.671875 C 2.175781 -3.671875 2.390625 -3.625 2.578125 -3.53125 C 2.773438 -3.445312 2.941406 -3.328125 3.078125 -3.171875 C 3.210938 -3.015625 3.3125 -2.828125 3.375 -2.609375 C 3.445312 -2.398438 3.484375 -2.171875 3.484375 -1.921875 L 3.484375 -1.65625 L 0.90625 -1.65625 L 0.90625 -1.484375 C 0.90625 -1.335938 0.929688 -1.195312 0.984375 -1.0625 C 1.035156 -0.925781 1.101562 -0.804688 1.1875 -0.703125 C 1.28125 -0.609375 1.390625 -0.535156 1.515625 -0.484375 C 1.648438 -0.429688 1.800781 -0.40625 1.96875 -0.40625 C 2.195312 -0.40625 2.394531 -0.457031 2.5625 -0.5625 C 2.738281 -0.664062 2.875 -0.816406 2.96875 -1.015625 L 3.359375 -0.734375 C 3.242188 -0.492188 3.0625 -0.296875 2.8125 -0.140625 C 2.570312 0.00390625 2.28125 0.078125 1.9375 0.078125 Z M 1.9375 -3.203125 C 1.78125 -3.203125 1.640625 -3.175781 1.515625 -3.125 C 1.390625 -3.070312 1.28125 -2.992188 1.1875 -2.890625 C 1.101562 -2.796875 1.035156 -2.679688 0.984375 -2.546875 C 0.929688 -2.421875 0.90625 -2.28125 0.90625 -2.125 L 0.90625 -2.078125 L 2.890625 -2.078125 L 2.890625 -2.15625 C 2.890625 -2.46875 2.800781 -2.71875 2.625 -2.90625 C 2.457031 -3.101562 2.226562 -3.203125 1.9375 -3.203125 Z M 1.9375 -3.203125 "/></g></g></g><g fill="#ffffff" fill-opacity="1"><g transform="translate(97.285791, 105.335782)"><g><path d="M 3.203125 0 C 2.992188 0 2.84375 -0.0507812 2.75 -0.15625 C 2.65625 -0.269531 2.597656 -0.410156 2.578125 -0.578125 L 2.546875 -0.578125 C 2.460938 -0.359375 2.332031 -0.191406 2.15625 -0.078125 C 1.976562 0.0234375 1.765625 0.078125 1.515625 0.078125 C 1.128906 0.078125 0.832031 -0.015625 0.625 -0.203125 C 0.414062 -0.398438 0.3125 -0.664062 0.3125 -1 C 0.3125 -1.34375 0.429688 -1.601562 0.671875 -1.78125 C 0.921875 -1.957031 1.304688 -2.046875 1.828125 -2.046875 L 2.546875 -2.046875 L 2.546875 -2.40625 C 2.546875 -2.65625 2.472656 -2.847656 2.328125 -2.984375 C 2.191406 -3.117188 1.984375 -3.1875 1.703125 -3.1875 C 1.484375 -3.1875 1.300781 -3.140625 1.15625 -3.046875 C 1.007812 -2.953125 0.882812 -2.820312 0.78125 -2.65625 L 0.453125 -2.96875 C 0.546875 -3.164062 0.695312 -3.332031 0.90625 -3.46875 C 1.125 -3.601562 1.394531 -3.671875 1.71875 -3.671875 C 2.15625 -3.671875 2.492188 -3.5625 2.734375 -3.34375 C 2.972656 -3.132812 3.09375 -2.84375 3.09375 -2.46875 L 3.09375 -0.484375 L 3.515625 -0.484375 L 3.515625 0 Z M 1.59375 -0.390625 C 1.738281 -0.390625 1.867188 -0.40625 1.984375 -0.4375 C 2.097656 -0.46875 2.195312 -0.515625 2.28125 -0.578125 C 2.363281 -0.640625 2.425781 -0.707031 2.46875 -0.78125 C 2.519531 -0.863281 2.546875 -0.953125 2.546875 -1.046875 L 2.546875 -1.640625 L 1.8125 -1.640625 C 1.488281 -1.640625 1.253906 -1.59375 1.109375 -1.5 C 0.960938 -1.40625 0.890625 -1.269531 0.890625 -1.09375 L 0.890625 -0.953125 C 0.890625 -0.773438 0.953125 -0.632812 1.078125 -0.53125 C 1.203125 -0.4375 1.375 -0.390625 1.59375 -0.390625 Z M 1.59375 -0.390625 "/></g></g></g><g fill="#ffffff" fill-opacity="1"><g transform="translate(100.995437, 105.335782)"><g><path d="M 1.390625 0 C 1.191406 0 1.039062 -0.0507812 0.9375 -0.15625 C 0.84375 -0.269531 0.796875 -0.414062 0.796875 -0.59375 L 0.796875 -3.09375 L 0.203125 -3.09375 L 0.203125 -3.59375 L 0.53125 -3.59375 C 0.65625 -3.59375 0.738281 -3.613281 0.78125 -3.65625 C 0.820312 -3.707031 0.84375 -3.796875 0.84375 -3.921875 L 0.84375 -4.578125 L 1.34375 -4.578125 L 1.34375 -3.59375 L 2.140625 -3.59375 L 2.140625 -3.09375 L 1.34375 -3.09375 L 1.34375 -0.484375 L 2.078125 -0.484375 L 2.078125 0 Z M 1.390625 0 "/></g></g></g><g fill="#ffffff" fill-opacity="1"><g transform="translate(103.433805, 105.335782)"><g><path d="M 0.875 -4.421875 C 0.75 -4.421875 0.660156 -4.453125 0.609375 -4.515625 C 0.554688 -4.578125 0.53125 -4.648438 0.53125 -4.734375 L 0.53125 -4.828125 C 0.53125 -4.921875 0.554688 -4.992188 0.609375 -5.046875 C 0.660156 -5.109375 0.75 -5.140625 0.875 -5.140625 C 0.988281 -5.140625 1.070312 -5.109375 1.125 -5.046875 C 1.175781 -4.992188 1.203125 -4.921875 1.203125 -4.828125 L 1.203125 -4.734375 C 1.203125 -4.648438 1.175781 -4.578125 1.125 -4.515625 C 1.070312 -4.453125 0.988281 -4.421875 0.875 -4.421875 Z M 0.59375 -3.59375 L 1.140625 -3.59375 L 1.140625 0 L 0.59375 0 Z M 0.59375 -3.59375 "/></g></g></g><g fill="#ffffff" fill-opacity="1"><g transform="translate(105.17053, 105.335782)"><g><path d="M 1.390625 0 L 0.125 -3.59375 L 0.6875 -3.59375 L 1.3125 -1.8125 L 1.703125 -0.578125 L 1.734375 -0.578125 L 2.125 -1.8125 L 2.765625 -3.59375 L 3.296875 -3.59375 L 2.03125 0 Z M 1.390625 0 "/></g></g></g><g fill="#ffffff" fill-opacity="1"><g transform="translate(108.588411, 105.335782)"><g><path d="M 1.9375 0.078125 C 1.695312 0.078125 1.476562 0.0351562 1.28125 -0.046875 C 1.082031 -0.140625 0.910156 -0.265625 0.765625 -0.421875 C 0.628906 -0.585938 0.519531 -0.785156 0.4375 -1.015625 C 0.363281 -1.242188 0.328125 -1.503906 0.328125 -1.796875 C 0.328125 -2.078125 0.363281 -2.332031 0.4375 -2.5625 C 0.519531 -2.789062 0.628906 -2.988281 0.765625 -3.15625 C 0.910156 -3.320312 1.082031 -3.445312 1.28125 -3.53125 C 1.476562 -3.625 1.695312 -3.671875 1.9375 -3.671875 C 2.175781 -3.671875 2.390625 -3.625 2.578125 -3.53125 C 2.773438 -3.445312 2.941406 -3.328125 3.078125 -3.171875 C 3.210938 -3.015625 3.3125 -2.828125 3.375 -2.609375 C 3.445312 -2.398438 3.484375 -2.171875 3.484375 -1.921875 L 3.484375 -1.65625 L 0.90625 -1.65625 L 0.90625 -1.484375 C 0.90625 -1.335938 0.929688 -1.195312 0.984375 -1.0625 C 1.035156 -0.925781 1.101562 -0.804688 1.1875 -0.703125 C 1.28125 -0.609375 1.390625 -0.535156 1.515625 -0.484375 C 1.648438 -0.429688 1.800781 -0.40625 1.96875 -0.40625 C 2.195312 -0.40625 2.394531 -0.457031 2.5625 -0.5625 C 2.738281 -0.664062 2.875 -0.816406 2.96875 -1.015625 L 3.359375 -0.734375 C 3.242188 -0.492188 3.0625 -0.296875 2.8125 -0.140625 C 2.570312 0.00390625 2.28125 0.078125 1.9375 0.078125 Z M 1.9375 -3.203125 C 1.78125 -3.203125 1.640625 -3.175781 1.515625 -3.125 C 1.390625 -3.070312 1.28125 -2.992188 1.1875 -2.890625 C 1.101562 -2.796875 1.035156 -2.679688 0.984375 -2.546875 C 0.929688 -2.421875 0.90625 -2.28125 0.90625 -2.125 L 0.90625 -2.078125 L 2.890625 -2.078125 L 2.890625 -2.15625 C 2.890625 -2.46875 2.800781 -2.71875 2.625 -2.90625 C 2.457031 -3.101562 2.226562 -3.203125 1.9375 -3.203125 Z M 1.9375 -3.203125 "/></g></g></g><g fill="#ffffff" fill-opacity="1"><g transform="translate(112.40226, 105.335782)"><g/></g></g><g fill="#ffffff" fill-opacity="1"><g transform="translate(114.041733, 105.335782)"><g><path d="M 3.6875 0 L 3.203125 -1.4375 L 1.234375 -1.4375 L 0.75 0 L 0.15625 0 L 1.859375 -4.859375 L 2.59375 -4.859375 L 4.296875 0 Z M 2.234375 -4.3125 L 2.203125 -4.3125 L 1.375 -1.953125 L 3.046875 -1.953125 Z M 2.234375 -4.3125 "/></g></g></g><g fill="#ffffff" fill-opacity="1"><g transform="translate(118.494696, 105.335782)"><g><path d="M 3.609375 0.390625 C 3.609375 0.765625 3.460938 1.035156 3.171875 1.203125 C 2.890625 1.378906 2.457031 1.46875 1.875 1.46875 C 1.3125 1.46875 0.90625 1.390625 0.65625 1.234375 C 0.414062 1.085938 0.296875 0.875 0.296875 0.59375 C 0.296875 0.394531 0.347656 0.238281 0.453125 0.125 C 0.554688 0.0195312 0.695312 -0.0546875 0.875 -0.109375 L 0.875 -0.1875 C 0.65625 -0.28125 0.546875 -0.445312 0.546875 -0.6875 C 0.546875 -0.863281 0.601562 -1 0.71875 -1.09375 C 0.832031 -1.1875 0.984375 -1.257812 1.171875 -1.3125 L 1.171875 -1.328125 C 0.953125 -1.429688 0.785156 -1.578125 0.671875 -1.765625 C 0.554688 -1.960938 0.5 -2.1875 0.5 -2.4375 C 0.5 -2.613281 0.53125 -2.773438 0.59375 -2.921875 C 0.65625 -3.078125 0.742188 -3.207031 0.859375 -3.3125 C 0.984375 -3.425781 1.125 -3.515625 1.28125 -3.578125 C 1.445312 -3.640625 1.632812 -3.671875 1.84375 -3.671875 C 2.09375 -3.671875 2.320312 -3.625 2.53125 -3.53125 L 2.53125 -3.59375 C 2.53125 -3.726562 2.5625 -3.84375 2.625 -3.9375 C 2.6875 -4.03125 2.789062 -4.078125 2.9375 -4.078125 L 3.484375 -4.078125 L 3.484375 -3.59375 L 2.796875 -3.59375 L 2.796875 -3.359375 C 2.921875 -3.242188 3.019531 -3.109375 3.09375 -2.953125 C 3.164062 -2.796875 3.203125 -2.625 3.203125 -2.4375 C 3.203125 -2.25 3.171875 -2.078125 3.109375 -1.921875 C 3.046875 -1.773438 2.953125 -1.644531 2.828125 -1.53125 C 2.710938 -1.425781 2.570312 -1.34375 2.40625 -1.28125 C 2.238281 -1.226562 2.050781 -1.203125 1.84375 -1.203125 C 1.726562 -1.203125 1.613281 -1.210938 1.5 -1.234375 C 1.382812 -1.203125 1.273438 -1.15625 1.171875 -1.09375 C 1.078125 -1.03125 1.03125 -0.941406 1.03125 -0.828125 C 1.03125 -0.722656 1.078125 -0.648438 1.171875 -0.609375 C 1.273438 -0.578125 1.410156 -0.5625 1.578125 -0.5625 L 2.34375 -0.5625 C 2.789062 -0.5625 3.113281 -0.472656 3.3125 -0.296875 C 3.507812 -0.128906 3.609375 0.0976562 3.609375 0.390625 Z M 3.09375 0.4375 C 3.09375 0.289062 3.035156 0.175781 2.921875 0.09375 C 2.816406 0.0078125 2.625 -0.03125 2.34375 -0.03125 L 1.15625 -0.03125 C 0.9375 0.0703125 0.828125 0.234375 0.828125 0.453125 C 0.828125 0.609375 0.882812 0.738281 1 0.84375 C 1.113281 0.957031 1.3125 1.015625 1.59375 1.015625 L 2.109375 1.015625 C 2.421875 1.015625 2.660156 0.96875 2.828125 0.875 C 3.003906 0.78125 3.09375 0.632812 3.09375 0.4375 Z M 1.84375 -1.640625 C 2.082031 -1.640625 2.269531 -1.695312 2.40625 -1.8125 C 2.550781 -1.925781 2.625 -2.101562 2.625 -2.34375 L 2.625 -2.53125 C 2.625 -2.769531 2.550781 -2.941406 2.40625 -3.046875 C 2.269531 -3.160156 2.082031 -3.21875 1.84375 -3.21875 C 1.613281 -3.21875 1.425781 -3.160156 1.28125 -3.046875 C 1.144531 -2.941406 1.078125 -2.769531 1.078125 -2.53125 L 1.078125 -2.34375 C 1.078125 -2.101562 1.144531 -1.925781 1.28125 -1.8125 C 1.425781 -1.695312 1.613281 -1.640625 1.84375 -1.640625 Z M 1.84375 -1.640625 "/></g></g></g><g fill="#ffffff" fill-opacity="1"><g transform="translate(122.162667, 105.335782)"><g><path d="M 1.9375 0.078125 C 1.695312 0.078125 1.476562 0.0351562 1.28125 -0.046875 C 1.082031 -0.140625 0.910156 -0.265625 0.765625 -0.421875 C 0.628906 -0.585938 0.519531 -0.785156 0.4375 -1.015625 C 0.363281 -1.242188 0.328125 -1.503906 0.328125 -1.796875 C 0.328125 -2.078125 0.363281 -2.332031 0.4375 -2.5625 C 0.519531 -2.789062 0.628906 -2.988281 0.765625 -3.15625 C 0.910156 -3.320312 1.082031 -3.445312 1.28125 -3.53125 C 1.476562 -3.625 1.695312 -3.671875 1.9375 -3.671875 C 2.175781 -3.671875 2.390625 -3.625 2.578125 -3.53125 C 2.773438 -3.445312 2.941406 -3.328125 3.078125 -3.171875 C 3.210938 -3.015625 3.3125 -2.828125 3.375 -2.609375 C 3.445312 -2.398438 3.484375 -2.171875 3.484375 -1.921875 L 3.484375 -1.65625 L 0.90625 -1.65625 L 0.90625 -1.484375 C 0.90625 -1.335938 0.929688 -1.195312 0.984375 -1.0625 C 1.035156 -0.925781 1.101562 -0.804688 1.1875 -0.703125 C 1.28125 -0.609375 1.390625 -0.535156 1.515625 -0.484375 C 1.648438 -0.429688 1.800781 -0.40625 1.96875 -0.40625 C 2.195312 -0.40625 2.394531 -0.457031 2.5625 -0.5625 C 2.738281 -0.664062 2.875 -0.816406 2.96875 -1.015625 L 3.359375 -0.734375 C 3.242188 -0.492188 3.0625 -0.296875 2.8125 -0.140625 C 2.570312 0.00390625 2.28125 0.078125 1.9375 0.078125 Z M 1.9375 -3.203125 C 1.78125 -3.203125 1.640625 -3.175781 1.515625 -3.125 C 1.390625 -3.070312 1.28125 -2.992188 1.1875 -2.890625 C 1.101562 -2.796875 1.035156 -2.679688 0.984375 -2.546875 C 0.929688 -2.421875 0.90625 -2.28125 0.90625 -2.125 L 0.90625 -2.078125 L 2.890625 -2.078125 L 2.890625 -2.15625 C 2.890625 -2.46875 2.800781 -2.71875 2.625 -2.90625 C 2.457031 -3.101562 2.226562 -3.203125 1.9375 -3.203125 Z M 1.9375 -3.203125 "/></g></g></g><g fill="#ffffff" fill-opacity="1"><g transform="translate(125.976516, 105.335782)"><g><path d="M 0.59375 0 L 0.59375 -3.59375 L 1.140625 -3.59375 L 1.140625 -3 L 1.171875 -3 C 1.265625 -3.207031 1.390625 -3.367188 1.546875 -3.484375 C 1.703125 -3.609375 1.914062 -3.671875 2.1875 -3.671875 C 2.5625 -3.671875 2.851562 -3.550781 3.0625 -3.3125 C 3.28125 -3.070312 3.390625 -2.734375 3.390625 -2.296875 L 3.390625 0 L 2.84375 0 L 2.84375 -2.203125 C 2.84375 -2.847656 2.566406 -3.171875 2.015625 -3.171875 C 1.910156 -3.171875 1.804688 -3.15625 1.703125 -3.125 C 1.597656 -3.101562 1.503906 -3.0625 1.421875 -3 C 1.335938 -2.945312 1.269531 -2.875 1.21875 -2.78125 C 1.164062 -2.695312 1.140625 -2.597656 1.140625 -2.484375 L 1.140625 0 Z M 0.59375 0 "/></g></g></g><g fill="#ffffff" fill-opacity="1"><g transform="translate(129.922357, 105.335782)"><g><path d="M 1.921875 0.078125 C 1.671875 0.078125 1.445312 0.0351562 1.25 -0.046875 C 1.050781 -0.140625 0.882812 -0.265625 0.75 -0.421875 C 0.613281 -0.585938 0.507812 -0.785156 0.4375 -1.015625 C 0.363281 -1.242188 0.328125 -1.503906 0.328125 -1.796875 C 0.328125 -2.078125 0.363281 -2.332031 0.4375 -2.5625 C 0.507812 -2.800781 0.613281 -3 0.75 -3.15625 C 0.882812 -3.320312 1.050781 -3.445312 1.25 -3.53125 C 1.445312 -3.625 1.671875 -3.671875 1.921875 -3.671875 C 2.285156 -3.671875 2.570312 -3.59375 2.78125 -3.4375 C 3 -3.28125 3.160156 -3.078125 3.265625 -2.828125 L 2.796875 -2.59375 C 2.734375 -2.78125 2.628906 -2.921875 2.484375 -3.015625 C 2.335938 -3.117188 2.148438 -3.171875 1.921875 -3.171875 C 1.753906 -3.171875 1.609375 -3.144531 1.484375 -3.09375 C 1.359375 -3.039062 1.253906 -2.96875 1.171875 -2.875 C 1.085938 -2.78125 1.023438 -2.664062 0.984375 -2.53125 C 0.941406 -2.40625 0.921875 -2.257812 0.921875 -2.09375 L 0.921875 -1.484375 C 0.921875 -1.171875 1.003906 -0.910156 1.171875 -0.703125 C 1.347656 -0.503906 1.597656 -0.40625 1.921875 -0.40625 C 2.367188 -0.40625 2.695312 -0.613281 2.90625 -1.03125 L 3.296875 -0.765625 C 3.179688 -0.503906 3.007812 -0.296875 2.78125 -0.140625 C 2.550781 0.00390625 2.265625 0.078125 1.921875 0.078125 Z M 1.921875 0.078125 "/></g></g></g><g fill="#ffffff" fill-opacity="1"><g transform="translate(133.416653, 105.335782)"><g><path d="M 2.796875 -3.59375 L 3.34375 -3.59375 L 1.75 0.828125 C 1.707031 0.941406 1.664062 1.03125 1.625 1.09375 C 1.582031 1.164062 1.53125 1.222656 1.46875 1.265625 C 1.40625 1.304688 1.328125 1.335938 1.234375 1.359375 C 1.148438 1.378906 1.039062 1.390625 0.90625 1.390625 L 0.625 1.390625 L 0.625 0.90625 L 1.1875 0.90625 L 1.453125 0.140625 L 0.125 -3.59375 L 0.671875 -3.59375 L 1.53125 -1.140625 L 1.703125 -0.5625 L 1.734375 -0.5625 L 1.9375 -1.140625 Z M 2.796875 -3.59375 "/></g></g></g></svg>